<svg width="58" height="32" viewBox="0 0 58 32" fill="none" xmlns="http://www.w3.org/2000/svg">
<path id="Vector" d="M13.7505 31.6666C10.1038 31.6672 6.60619 30.4605 4.0271 28.3121C1.448 26.1636 -0.00128986 23.2493 -0.0019529 20.2104C-0.00261594 17.1715 1.4454 14.2568 4.02356 12.1075C6.60172 9.95827 10.0988 8.75053 13.7455 8.74998C15.1534 5.93907 17.657 3.60561 20.8521 2.12636C24.0472 0.647103 27.7474 0.108403 31.3551 0.597235C34.9628 1.08607 38.2675 2.5739 40.7357 4.8205C43.2038 7.0671 44.6914 9.94134 44.958 12.9791L46.2505 12.9166C49.2342 12.9166 52.0957 13.9044 54.2055 15.6625C56.3153 17.4207 57.5005 19.8052 57.5005 22.2916C57.5005 24.778 56.3153 27.1626 54.2055 28.9208C52.0957 30.6789 49.2342 31.6666 46.2505 31.6666H13.7505ZM13.7505 10.8333C10.7669 10.8333 7.90538 11.821 5.79559 13.5792C3.68581 15.3373 2.50055 17.7219 2.50055 20.2083C2.50055 22.6947 3.68581 25.0793 5.79559 26.8374C7.90538 28.5956 10.7669 29.5833 13.7505 29.5833H46.2505C47.5704 29.5824 48.8729 29.3328 50.0605 28.853C51.2481 28.3732 52.2901 27.6758 53.1085 26.8129C53.9269 25.95 54.5004 24.944 54.7861 23.8702C55.0718 22.7965 55.0624 21.6827 54.7584 20.6124C54.4545 19.5422 53.8639 18.543 53.031 17.6899C52.1981 16.8367 51.1443 16.1516 49.9486 15.6859C48.753 15.2202 47.4464 14.9859 46.1267 15.0006C44.807 15.0153 43.5083 15.2786 42.328 15.7708L42.5005 13.9583C42.5045 11.1804 41.2973 8.49594 39.1036 6.40433C36.9099 4.31272 33.8791 2.95643 30.5752 2.58781C27.2712 2.21918 23.919 2.86334 21.1423 4.40041C18.3657 5.93749 16.3536 8.26281 15.4805 10.9437L13.7505 10.8333ZM30.0005 10.8333V21.7708L35.6255 17.0833L37.5005 18.4666L28.7505 25.7583L20.0005 18.4666L21.8755 17.0833L27.5005 21.7708V10.8333H30.0005Z" fill="#222222"/>
</svg>
