<svg width="780" height="104" viewBox="0 0 780 104" fill="none" xmlns="http://www.w3.org/2000/svg">
<mask id="path-1-outside-1" maskUnits="userSpaceOnUse" x="0.600098" y="0" width="780" height="104" fill="black">
<rect fill="white" x="0.600098" width="780" height="104"/>
<path d="M93.8001 6.1L74.0001 76H66.2001L48.6001 16.4L30.6001 76L23.0001 76.1L3.6001 6.1H11.1001L27.1001 67.4L45.0001 6.1H52.8001L70.2001 67.4L86.3001 6.1H93.8001Z"/>
<path d="M155.908 45.9C155.908 48.3 155.841 50.1333 155.708 51.4H110.408C110.608 55.5333 111.608 59.0667 113.408 62C115.208 64.9333 117.575 67.1667 120.508 68.7C123.441 70.1667 126.641 70.9 130.108 70.9C134.641 70.9 138.441 69.8 141.508 67.6C144.641 65.4 146.708 62.4333 147.708 58.7H155.108C153.775 64.0333 150.908 68.4 146.508 71.8C142.175 75.1333 136.708 76.8 130.108 76.8C124.975 76.8 120.375 75.6667 116.308 73.4C112.241 71.0667 109.041 67.8 106.708 63.6C104.441 59.3333 103.308 54.3667 103.308 48.7C103.308 43.0333 104.441 38.0667 106.708 33.8C108.975 29.5333 112.141 26.2667 116.208 24C120.275 21.7333 124.908 20.6 130.108 20.6C135.308 20.6 139.841 21.7333 143.708 24C147.641 26.2667 150.641 29.3333 152.708 33.2C154.841 37 155.908 41.2333 155.908 45.9ZM148.808 45.7C148.875 41.6333 148.041 38.1667 146.308 35.3C144.641 32.4333 142.341 30.2667 139.408 28.8C136.475 27.3333 133.275 26.6 129.808 26.6C124.608 26.6 120.175 28.2667 116.508 31.6C112.841 34.9333 110.808 39.6333 110.408 45.7H148.808Z"/>
<path d="M177.615 33.5C179.415 29.7 182.182 26.6 185.915 24.2C189.715 21.8 194.182 20.6 199.315 20.6C204.315 20.6 208.782 21.7667 212.715 24.1C216.648 26.3667 219.715 29.6333 221.915 33.9C224.182 38.1 225.315 43 225.315 48.6C225.315 54.2 224.182 59.1333 221.915 63.4C219.715 67.6667 216.615 70.9667 212.615 73.3C208.682 75.6333 204.248 76.8 199.315 76.8C194.115 76.8 189.615 75.6333 185.815 73.3C182.082 70.9 179.348 67.8 177.615 64V76H170.715V2H177.615V33.5ZM218.215 48.6C218.215 44.0667 217.315 40.1667 215.515 36.9C213.782 33.5667 211.382 31.0333 208.315 29.3C205.248 27.5667 201.782 26.7 197.915 26.7C194.182 26.7 190.748 27.6 187.615 29.4C184.548 31.2 182.115 33.7667 180.315 37.1C178.515 40.4333 177.615 44.3 177.615 48.7C177.615 53.1 178.515 56.9667 180.315 60.3C182.115 63.6333 184.548 66.2 187.615 68C190.748 69.8 194.182 70.7 197.915 70.7C201.782 70.7 205.248 69.8333 208.315 68.1C211.382 66.3 213.782 63.7333 215.515 60.4C217.315 57 218.215 53.0667 218.215 48.6Z"/>
<path d="M290.337 6.1C298.07 6.1 304.703 7.5 310.237 10.3C315.77 13.1 320.003 17.1333 322.937 22.4C325.87 27.6667 327.337 33.9333 327.337 41.2C327.337 48.4 325.87 54.6333 322.937 59.9C320.003 65.1 315.77 69.1 310.237 71.9C304.703 74.6333 298.07 76 290.337 76H269.637V6.1H290.337ZM290.337 70.2C300.07 70.2 307.47 67.6667 312.537 62.6C317.67 57.4667 320.237 50.3333 320.237 41.2C320.237 32 317.67 24.8333 312.537 19.7C307.47 14.5 300.07 11.9 290.337 11.9H276.637V70.2H290.337Z"/>
<path d="M391.642 45.9C391.642 48.3 391.576 50.1333 391.442 51.4H346.142C346.342 55.5333 347.342 59.0667 349.142 62C350.942 64.9333 353.309 67.1667 356.242 68.7C359.176 70.1667 362.376 70.9 365.842 70.9C370.376 70.9 374.176 69.8 377.242 67.6C380.376 65.4 382.442 62.4333 383.442 58.7H390.842C389.509 64.0333 386.642 68.4 382.242 71.8C377.909 75.1333 372.442 76.8 365.842 76.8C360.709 76.8 356.109 75.6667 352.042 73.4C347.976 71.0667 344.776 67.8 342.442 63.6C340.176 59.3333 339.042 54.3667 339.042 48.7C339.042 43.0333 340.176 38.0667 342.442 33.8C344.709 29.5333 347.876 26.2667 351.942 24C356.009 21.7333 360.642 20.6 365.842 20.6C371.042 20.6 375.576 21.7333 379.442 24C383.376 26.2667 386.376 29.3333 388.442 33.2C390.576 37 391.642 41.2333 391.642 45.9ZM384.542 45.7C384.609 41.6333 383.776 38.1667 382.042 35.3C380.376 32.4333 378.076 30.2667 375.142 28.8C372.209 27.3333 369.009 26.6 365.542 26.6C360.342 26.6 355.909 28.2667 352.242 31.6C348.576 34.9333 346.542 39.6333 346.142 45.7H384.542Z"/>
<path d="M425.849 69.2L444.249 21.4H451.649L429.749 76H421.849L399.949 21.4H407.449L425.849 69.2Z"/>
<path d="M512.537 45.9C512.537 48.3 512.47 50.1333 512.337 51.4H467.037C467.237 55.5333 468.237 59.0667 470.037 62C471.837 64.9333 474.203 67.1667 477.137 68.7C480.07 70.1667 483.27 70.9 486.737 70.9C491.27 70.9 495.07 69.8 498.137 67.6C501.27 65.4 503.337 62.4333 504.337 58.7H511.737C510.403 64.0333 507.537 68.4 503.137 71.8C498.803 75.1333 493.337 76.8 486.737 76.8C481.603 76.8 477.003 75.6667 472.937 73.4C468.87 71.0667 465.67 67.8 463.337 63.6C461.07 59.3333 459.937 54.3667 459.937 48.7C459.937 43.0333 461.07 38.0667 463.337 33.8C465.603 29.5333 468.77 26.2667 472.837 24C476.903 21.7333 481.537 20.6 486.737 20.6C491.937 20.6 496.47 21.7333 500.337 24C504.27 26.2667 507.27 29.3333 509.337 33.2C511.47 37 512.537 41.2333 512.537 45.9ZM505.437 45.7C505.503 41.6333 504.67 38.1667 502.937 35.3C501.27 32.4333 498.97 30.2667 496.037 28.8C493.103 27.3333 489.903 26.6 486.437 26.6C481.237 26.6 476.803 28.2667 473.137 31.6C469.47 34.9333 467.437 39.6333 467.037 45.7H505.437Z"/>
<path d="M534.344 2V76H527.344V2H534.344Z"/>
<path d="M576.095 76.8C570.962 76.8 566.329 75.6667 562.195 73.4C558.129 71.0667 554.895 67.8 552.495 63.6C550.162 59.3333 548.995 54.3667 548.995 48.7C548.995 43.0333 550.195 38.1 552.595 33.9C554.995 29.6333 558.262 26.3667 562.395 24.1C566.529 21.7667 571.162 20.6 576.295 20.6C581.429 20.6 586.062 21.7667 590.195 24.1C594.395 26.3667 597.662 29.6333 599.995 33.9C602.395 38.1 603.595 43.0333 603.595 48.7C603.595 54.3 602.395 59.2333 599.995 63.5C597.595 67.7667 594.295 71.0667 590.095 73.4C585.895 75.6667 581.229 76.8 576.095 76.8ZM576.095 70.7C579.695 70.7 583.029 69.9 586.095 68.3C589.162 66.6333 591.629 64.1667 593.495 60.9C595.429 57.5667 596.395 53.5 596.395 48.7C596.395 43.9 595.462 39.8667 593.595 36.6C591.729 33.2667 589.262 30.8 586.195 29.2C583.129 27.5333 579.795 26.7 576.195 26.7C572.595 26.7 569.262 27.5333 566.195 29.2C563.129 30.8 560.662 33.2667 558.795 36.6C556.995 39.8667 556.095 43.9 556.095 48.7C556.095 53.5 556.995 57.5667 558.795 60.9C560.662 64.1667 563.095 66.6333 566.095 68.3C569.162 69.9 572.495 70.7 576.095 70.7Z"/>
<path d="M625.256 33.4C626.989 29.7333 629.722 26.7 633.456 24.3C637.256 21.8333 641.756 20.6 646.956 20.6C651.889 20.6 656.322 21.7667 660.256 24.1C664.256 26.3667 667.356 29.6333 669.556 33.9C671.822 38.1 672.956 43 672.956 48.6C672.956 54.2 671.822 59.1333 669.556 63.4C667.356 67.6667 664.256 70.9667 660.256 73.3C656.322 75.6333 651.889 76.8 646.956 76.8C641.822 76.8 637.356 75.6 633.556 73.2C629.756 70.7333 626.989 67.6667 625.256 64V101.8H618.356V21.4H625.256V33.4ZM665.856 48.6C665.856 44.0667 664.956 40.1667 663.156 36.9C661.422 33.5667 659.022 31.0333 655.956 29.3C652.889 27.5667 649.422 26.7 645.556 26.7C641.822 26.7 638.389 27.6 635.256 29.4C632.189 31.2 629.756 33.7667 627.956 37.1C626.156 40.4333 625.256 44.3 625.256 48.7C625.256 53.1 626.156 56.9667 627.956 60.3C629.756 63.6333 632.189 66.2 635.256 68C638.389 69.8 641.822 70.7 645.556 70.7C649.422 70.7 652.889 69.8333 655.956 68.1C659.022 66.3 661.422 63.7333 663.156 60.4C664.956 57 665.856 53.0667 665.856 48.6Z"/>
<path d="M737.236 45.9C737.236 48.3 737.169 50.1333 737.036 51.4H691.736C691.936 55.5333 692.936 59.0667 694.736 62C696.536 64.9333 698.903 67.1667 701.836 68.7C704.769 70.1667 707.969 70.9 711.436 70.9C715.969 70.9 719.769 69.8 722.836 67.6C725.969 65.4 728.036 62.4333 729.036 58.7H736.436C735.103 64.0333 732.236 68.4 727.836 71.8C723.503 75.1333 718.036 76.8 711.436 76.8C706.303 76.8 701.703 75.6667 697.636 73.4C693.569 71.0667 690.369 67.8 688.036 63.6C685.769 59.3333 684.636 54.3667 684.636 48.7C684.636 43.0333 685.769 38.0667 688.036 33.8C690.303 29.5333 693.469 26.2667 697.536 24C701.603 21.7333 706.236 20.6 711.436 20.6C716.636 20.6 721.169 21.7333 725.036 24C728.969 26.2667 731.969 29.3333 734.036 33.2C736.169 37 737.236 41.2333 737.236 45.9ZM730.136 45.7C730.203 41.6333 729.369 38.1667 727.636 35.3C725.969 32.4333 723.669 30.2667 720.736 28.8C717.803 27.3333 714.603 26.6 711.136 26.6C705.936 26.6 701.503 28.2667 697.836 31.6C694.169 34.9333 692.136 39.6333 691.736 45.7H730.136Z"/>
<path d="M759.043 31.1C760.576 27.7 762.91 25.0667 766.043 23.2C769.243 21.3333 773.143 20.4 777.743 20.4V27.7H775.843C770.776 27.7 766.71 29.0667 763.643 31.8C760.576 34.5333 759.043 39.1 759.043 45.5V76H752.043V21.4H759.043V31.1Z"/>
</mask>
<path d="M93.8001 6.1L74.0001 76H66.2001L48.6001 16.4L30.6001 76L23.0001 76.1L3.6001 6.1H11.1001L27.1001 67.4L45.0001 6.1H52.8001L70.2001 67.4L86.3001 6.1H93.8001Z" stroke="white" stroke-width="4" mask="url(#path-1-outside-1)"/>
<path d="M155.908 45.9C155.908 48.3 155.841 50.1333 155.708 51.4H110.408C110.608 55.5333 111.608 59.0667 113.408 62C115.208 64.9333 117.575 67.1667 120.508 68.7C123.441 70.1667 126.641 70.9 130.108 70.9C134.641 70.9 138.441 69.8 141.508 67.6C144.641 65.4 146.708 62.4333 147.708 58.7H155.108C153.775 64.0333 150.908 68.4 146.508 71.8C142.175 75.1333 136.708 76.8 130.108 76.8C124.975 76.8 120.375 75.6667 116.308 73.4C112.241 71.0667 109.041 67.8 106.708 63.6C104.441 59.3333 103.308 54.3667 103.308 48.7C103.308 43.0333 104.441 38.0667 106.708 33.8C108.975 29.5333 112.141 26.2667 116.208 24C120.275 21.7333 124.908 20.6 130.108 20.6C135.308 20.6 139.841 21.7333 143.708 24C147.641 26.2667 150.641 29.3333 152.708 33.2C154.841 37 155.908 41.2333 155.908 45.9ZM148.808 45.7C148.875 41.6333 148.041 38.1667 146.308 35.3C144.641 32.4333 142.341 30.2667 139.408 28.8C136.475 27.3333 133.275 26.6 129.808 26.6C124.608 26.6 120.175 28.2667 116.508 31.6C112.841 34.9333 110.808 39.6333 110.408 45.7H148.808Z" stroke="white" stroke-width="4" mask="url(#path-1-outside-1)"/>
<path d="M177.615 33.5C179.415 29.7 182.182 26.6 185.915 24.2C189.715 21.8 194.182 20.6 199.315 20.6C204.315 20.6 208.782 21.7667 212.715 24.1C216.648 26.3667 219.715 29.6333 221.915 33.9C224.182 38.1 225.315 43 225.315 48.6C225.315 54.2 224.182 59.1333 221.915 63.4C219.715 67.6667 216.615 70.9667 212.615 73.3C208.682 75.6333 204.248 76.8 199.315 76.8C194.115 76.8 189.615 75.6333 185.815 73.3C182.082 70.9 179.348 67.8 177.615 64V76H170.715V2H177.615V33.5ZM218.215 48.6C218.215 44.0667 217.315 40.1667 215.515 36.9C213.782 33.5667 211.382 31.0333 208.315 29.3C205.248 27.5667 201.782 26.7 197.915 26.7C194.182 26.7 190.748 27.6 187.615 29.4C184.548 31.2 182.115 33.7667 180.315 37.1C178.515 40.4333 177.615 44.3 177.615 48.7C177.615 53.1 178.515 56.9667 180.315 60.3C182.115 63.6333 184.548 66.2 187.615 68C190.748 69.8 194.182 70.7 197.915 70.7C201.782 70.7 205.248 69.8333 208.315 68.1C211.382 66.3 213.782 63.7333 215.515 60.4C217.315 57 218.215 53.0667 218.215 48.6Z" stroke="white" stroke-width="4" mask="url(#path-1-outside-1)"/>
<path d="M290.337 6.1C298.07 6.1 304.703 7.5 310.237 10.3C315.77 13.1 320.003 17.1333 322.937 22.4C325.87 27.6667 327.337 33.9333 327.337 41.2C327.337 48.4 325.87 54.6333 322.937 59.9C320.003 65.1 315.77 69.1 310.237 71.9C304.703 74.6333 298.07 76 290.337 76H269.637V6.1H290.337ZM290.337 70.2C300.07 70.2 307.47 67.6667 312.537 62.6C317.67 57.4667 320.237 50.3333 320.237 41.2C320.237 32 317.67 24.8333 312.537 19.7C307.47 14.5 300.07 11.9 290.337 11.9H276.637V70.2H290.337Z" stroke="white" stroke-width="4" mask="url(#path-1-outside-1)"/>
<path d="M391.642 45.9C391.642 48.3 391.576 50.1333 391.442 51.4H346.142C346.342 55.5333 347.342 59.0667 349.142 62C350.942 64.9333 353.309 67.1667 356.242 68.7C359.176 70.1667 362.376 70.9 365.842 70.9C370.376 70.9 374.176 69.8 377.242 67.6C380.376 65.4 382.442 62.4333 383.442 58.7H390.842C389.509 64.0333 386.642 68.4 382.242 71.8C377.909 75.1333 372.442 76.8 365.842 76.8C360.709 76.8 356.109 75.6667 352.042 73.4C347.976 71.0667 344.776 67.8 342.442 63.6C340.176 59.3333 339.042 54.3667 339.042 48.7C339.042 43.0333 340.176 38.0667 342.442 33.8C344.709 29.5333 347.876 26.2667 351.942 24C356.009 21.7333 360.642 20.6 365.842 20.6C371.042 20.6 375.576 21.7333 379.442 24C383.376 26.2667 386.376 29.3333 388.442 33.2C390.576 37 391.642 41.2333 391.642 45.9ZM384.542 45.7C384.609 41.6333 383.776 38.1667 382.042 35.3C380.376 32.4333 378.076 30.2667 375.142 28.8C372.209 27.3333 369.009 26.6 365.542 26.6C360.342 26.6 355.909 28.2667 352.242 31.6C348.576 34.9333 346.542 39.6333 346.142 45.7H384.542Z" stroke="white" stroke-width="4" mask="url(#path-1-outside-1)"/>
<path d="M425.849 69.2L444.249 21.4H451.649L429.749 76H421.849L399.949 21.4H407.449L425.849 69.2Z" stroke="white" stroke-width="4" mask="url(#path-1-outside-1)"/>
<path d="M512.537 45.9C512.537 48.3 512.47 50.1333 512.337 51.4H467.037C467.237 55.5333 468.237 59.0667 470.037 62C471.837 64.9333 474.203 67.1667 477.137 68.7C480.07 70.1667 483.27 70.9 486.737 70.9C491.27 70.9 495.07 69.8 498.137 67.6C501.27 65.4 503.337 62.4333 504.337 58.7H511.737C510.403 64.0333 507.537 68.4 503.137 71.8C498.803 75.1333 493.337 76.8 486.737 76.8C481.603 76.8 477.003 75.6667 472.937 73.4C468.87 71.0667 465.67 67.8 463.337 63.6C461.07 59.3333 459.937 54.3667 459.937 48.7C459.937 43.0333 461.07 38.0667 463.337 33.8C465.603 29.5333 468.77 26.2667 472.837 24C476.903 21.7333 481.537 20.6 486.737 20.6C491.937 20.6 496.47 21.7333 500.337 24C504.27 26.2667 507.27 29.3333 509.337 33.2C511.47 37 512.537 41.2333 512.537 45.9ZM505.437 45.7C505.503 41.6333 504.67 38.1667 502.937 35.3C501.27 32.4333 498.97 30.2667 496.037 28.8C493.103 27.3333 489.903 26.6 486.437 26.6C481.237 26.6 476.803 28.2667 473.137 31.6C469.47 34.9333 467.437 39.6333 467.037 45.7H505.437Z" stroke="white" stroke-width="4" mask="url(#path-1-outside-1)"/>
<path d="M534.344 2V76H527.344V2H534.344Z" stroke="white" stroke-width="4" mask="url(#path-1-outside-1)"/>
<path d="M576.095 76.8C570.962 76.8 566.329 75.6667 562.195 73.4C558.129 71.0667 554.895 67.8 552.495 63.6C550.162 59.3333 548.995 54.3667 548.995 48.7C548.995 43.0333 550.195 38.1 552.595 33.9C554.995 29.6333 558.262 26.3667 562.395 24.1C566.529 21.7667 571.162 20.6 576.295 20.6C581.429 20.6 586.062 21.7667 590.195 24.1C594.395 26.3667 597.662 29.6333 599.995 33.9C602.395 38.1 603.595 43.0333 603.595 48.7C603.595 54.3 602.395 59.2333 599.995 63.5C597.595 67.7667 594.295 71.0667 590.095 73.4C585.895 75.6667 581.229 76.8 576.095 76.8ZM576.095 70.7C579.695 70.7 583.029 69.9 586.095 68.3C589.162 66.6333 591.629 64.1667 593.495 60.9C595.429 57.5667 596.395 53.5 596.395 48.7C596.395 43.9 595.462 39.8667 593.595 36.6C591.729 33.2667 589.262 30.8 586.195 29.2C583.129 27.5333 579.795 26.7 576.195 26.7C572.595 26.7 569.262 27.5333 566.195 29.2C563.129 30.8 560.662 33.2667 558.795 36.6C556.995 39.8667 556.095 43.9 556.095 48.7C556.095 53.5 556.995 57.5667 558.795 60.9C560.662 64.1667 563.095 66.6333 566.095 68.3C569.162 69.9 572.495 70.7 576.095 70.7Z" stroke="white" stroke-width="4" mask="url(#path-1-outside-1)"/>
<path d="M625.256 33.4C626.989 29.7333 629.722 26.7 633.456 24.3C637.256 21.8333 641.756 20.6 646.956 20.6C651.889 20.6 656.322 21.7667 660.256 24.1C664.256 26.3667 667.356 29.6333 669.556 33.9C671.822 38.1 672.956 43 672.956 48.6C672.956 54.2 671.822 59.1333 669.556 63.4C667.356 67.6667 664.256 70.9667 660.256 73.3C656.322 75.6333 651.889 76.8 646.956 76.8C641.822 76.8 637.356 75.6 633.556 73.2C629.756 70.7333 626.989 67.6667 625.256 64V101.8H618.356V21.4H625.256V33.4ZM665.856 48.6C665.856 44.0667 664.956 40.1667 663.156 36.9C661.422 33.5667 659.022 31.0333 655.956 29.3C652.889 27.5667 649.422 26.7 645.556 26.7C641.822 26.7 638.389 27.6 635.256 29.4C632.189 31.2 629.756 33.7667 627.956 37.1C626.156 40.4333 625.256 44.3 625.256 48.7C625.256 53.1 626.156 56.9667 627.956 60.3C629.756 63.6333 632.189 66.2 635.256 68C638.389 69.8 641.822 70.7 645.556 70.7C649.422 70.7 652.889 69.8333 655.956 68.1C659.022 66.3 661.422 63.7333 663.156 60.4C664.956 57 665.856 53.0667 665.856 48.6Z" stroke="white" stroke-width="4" mask="url(#path-1-outside-1)"/>
<path d="M737.236 45.9C737.236 48.3 737.169 50.1333 737.036 51.4H691.736C691.936 55.5333 692.936 59.0667 694.736 62C696.536 64.9333 698.903 67.1667 701.836 68.7C704.769 70.1667 707.969 70.9 711.436 70.9C715.969 70.9 719.769 69.8 722.836 67.6C725.969 65.4 728.036 62.4333 729.036 58.7H736.436C735.103 64.0333 732.236 68.4 727.836 71.8C723.503 75.1333 718.036 76.8 711.436 76.8C706.303 76.8 701.703 75.6667 697.636 73.4C693.569 71.0667 690.369 67.8 688.036 63.6C685.769 59.3333 684.636 54.3667 684.636 48.7C684.636 43.0333 685.769 38.0667 688.036 33.8C690.303 29.5333 693.469 26.2667 697.536 24C701.603 21.7333 706.236 20.6 711.436 20.6C716.636 20.6 721.169 21.7333 725.036 24C728.969 26.2667 731.969 29.3333 734.036 33.2C736.169 37 737.236 41.2333 737.236 45.9ZM730.136 45.7C730.203 41.6333 729.369 38.1667 727.636 35.3C725.969 32.4333 723.669 30.2667 720.736 28.8C717.803 27.3333 714.603 26.6 711.136 26.6C705.936 26.6 701.503 28.2667 697.836 31.6C694.169 34.9333 692.136 39.6333 691.736 45.7H730.136Z" stroke="white" stroke-width="4" mask="url(#path-1-outside-1)"/>
<path d="M759.043 31.1C760.576 27.7 762.91 25.0667 766.043 23.2C769.243 21.3333 773.143 20.4 777.743 20.4V27.7H775.843C770.776 27.7 766.71 29.0667 763.643 31.8C760.576 34.5333 759.043 39.1 759.043 45.5V76H752.043V21.4H759.043V31.1Z" stroke="white" stroke-width="4" mask="url(#path-1-outside-1)"/>
</svg>
